<svg width="60" height="61" viewBox="0 0 60 61" fill="none" xmlns="http://www.w3.org/2000/svg">
<g clip-path="url(#clip0_275_1145)">
<path d="M31 1.08691C14.9453 1.08691 1.9375 14.1695 1.9375 30.3164C1.9375 46.4634 14.9453 59.546 31 59.546C47.0547 59.546 60.0625 46.4634 60.0625 30.3164C60.0625 14.1695 47.0547 1.08691 31 1.08691ZM31 12.4016C36.6953 12.4016 41.3125 17.0453 41.3125 22.7733C41.3125 28.5014 36.6953 33.1451 31 33.1451C25.3047 33.1451 20.6875 28.5014 20.6875 22.7733C20.6875 17.0453 25.3047 12.4016 31 12.4016ZM31 52.9458C24.1211 52.9458 17.957 49.8106 13.832 44.9076C16.0352 40.7354 20.3477 37.8595 25.375 37.8595C25.6563 37.8595 25.9375 37.9067 26.207 37.9892C27.7305 38.4842 29.3242 38.8024 31 38.8024C32.6758 38.8024 34.2812 38.4842 35.793 37.9892C36.0625 37.9067 36.3437 37.8595 36.625 37.8595C41.6523 37.8595 45.9648 40.7354 48.168 44.9076C44.043 49.8106 37.8789 52.9458 31 52.9458Z" fill="#1683F8"/>
</g>
<defs>
<clipPath id="clip0_275_1145">
<rect width="60" height="60.3448" fill="white" transform="translate(0 0.143555)"/>
</clipPath>
</defs>
</svg>
